@startuml Software_de_Loja_Dominio_Vendas_Faturas
skinparam classAttributeIconSize 0
skinparam classFontSize 12
skinparam classHeaderBackgroundColor #EEEDFE
skinparam classBorderColor #534AB7
skinparam classBackgroundColor #FAFAFA
skinparam arrowColor #534AB7
skinparam stereotypeCBackgroundColor #E1F5EE
skinparam stereotypeABackgroundColor #FAC775
skinparam stereotypeIBackgroundColor #D1ECF1
skinparam packageBackgroundColor #F8F8F8
skinparam packageBorderColor #B4B2A9
skinparam linetype ortho
skinparam nodesep 60
skinparam ranksep 50

title Software de Loja — Domínio (Módulo: Vendas e Faturas)

package "Vendas e Faturas" #FEFEFE {

  enum MetodoPagamento {
    NUMERARIO
    MULTIBANCO
  }

  enum EstadoVenda {
    EM_CURSO
    FINALIZADA
    ANULADA
  }

  class Venda {
    - dataHora : LocalDateTime
    - metodoPagamento : MetodoPagamento
    - totalFaturado : double
    - estado : EstadoVenda
    - idUtilizador : int
    - linhas : List<LinhaVenda>
    - fatura : Fatura
    + adicionarLinha(linha : LinhaVenda) : void
    + emitirFatura(nifCliente : String) : void
    + getDataHora() : LocalDateTime
    + getMetodoPagamento() : MetodoPagamento
    + getTotalFaturado() : double
    + getEstado() : EstadoVenda
    + getIdUtilizador() : int
    + getLinhas() : List<LinhaVenda>
    + getFatura() : Fatura
  }

  class LinhaVenda {
    - id : int
    - idVenda : int
    - idLote : int
    - quantidade : int
    - precoUnitario : double
    + calcularSubtotal() : double
    + getIdLote() : int
  }

  class Fatura {
    - numeroFatura : String
    - dataEmissao : LocalDateTime
    - nifCliente : String
    - idVenda : int
    + getNumeroFatura() : String
    + getNifCliente() : String
    + getIdVenda() : int
  }

  class Devolucao {
    - dataHora : LocalDateTime
    - quantidade : int
    - dataValidadeEmbalagem : LocalDate
    - numeroFatura : String
    - idUtilizador : int
    + getNumeroFatura() : String
    + getQuantidade() : int
    + getDataValidadeEmbalagem() : LocalDate
  }
}

' Relações (Composição forte a partir da Venda)
Venda "1" *-- "1..*" LinhaVenda : contém
Venda "1" *-- "0..1" Fatura : emite
Devolucao --> Fatura : numeroFatura
Venda --> MetodoPagamento
Venda --> EstadoVenda
RegistoSincronizavel <|-- Venda
RegistoSincronizavel <|-- Devolucao

@enduml
